<svg xmlns="http://www.w3.org/2000/svg" width="30.862" height="30.861" viewBox="0 0 30.862 30.861">
  <path id="iconmonstr-instagram-11" d="M15.431,2.781c4.12,0,4.609.015,6.237.09,4.182.19,6.135,2.174,6.325,6.325.075,1.627.089,2.115.089,6.235s-.015,4.609-.089,6.235c-.192,4.147-2.14,6.135-6.325,6.325-1.628.075-2.114.09-6.237.09s-4.609-.015-6.235-.09C5,27.8,3.06,25.808,2.87,21.666c-.075-1.627-.09-2.114-.09-6.235S2.8,10.823,2.87,9.2C3.062,5.046,5.01,3.06,9.2,2.87c1.628-.073,2.115-.089,6.235-.089Zm0-2.781C11.24,0,10.715.018,9.069.093,3.466.35.351,3.459.094,9.068.018,10.715,0,11.24,0,15.431s.018,4.717.093,6.363c.257,5.6,3.366,8.718,8.976,8.976,1.647.075,2.172.093,6.363.093s4.717-.018,6.363-.093c5.6-.257,8.721-3.366,8.974-8.976.076-1.646.094-2.172.094-6.363s-.018-4.715-.093-6.361C30.517,3.471,27.4.351,21.795.094,20.147.018,19.622,0,15.431,0Zm0,7.507a7.924,7.924,0,1,0,7.924,7.924A7.924,7.924,0,0,0,15.431,7.507Zm0,13.067a5.144,5.144,0,1,1,5.144-5.144A5.143,5.143,0,0,1,15.431,20.574ZM23.668,5.343a1.852,1.852,0,1,0,1.85,1.852A1.852,1.852,0,0,0,23.668,5.343Z" fill="#fff"/>
</svg>
