<?xml version="1.0" encoding="utf-8"?>
<!-- Generator: Adobe Illustrator 23.0.3, SVG Export Plug-In . SVG Version: 6.00 Build 0)  -->
<svg version="1.1" id="Capa_1" xmlns="http://www.w3.org/2000/svg" xmlns:xlink="http://www.w3.org/1999/xlink" x="0px" y="0px"
	 viewBox="0 0 23 21" style="enable-background:new 0 0 23 21;" xml:space="preserve">
<style type="text/css">
	.st0{fill:#FFFFFF;}
</style>
<path id="Trazado_18108" class="st0" d="M6.8,19L6.8,19C2.2,16,0.8,9.8,3.8,5.1C4.6,3.9,5.6,2.8,6.8,2c0.5-0.3,0.7-1,0.4-1.5
	C7,0,6.3-0.2,5.8,0.1c0,0-0.1,0-0.1,0.1C0,3.8-1.7,11.4,1.9,17.1c1,1.5,2.2,2.8,3.8,3.8C5.8,20.9,6,21,6.3,21c0.4,0,0.7-0.2,0.9-0.5
	C7.5,20,7.4,19.3,6.8,19 M17.3,0.2c-0.5-0.3-1.2-0.2-1.5,0.3C15.4,1,15.6,1.6,16.1,2c0,0,0,0,0.1,0c4.7,3,6.1,9.2,3.1,13.9
	c-0.8,1.2-1.8,2.3-3.1,3.1c-0.5,0.3-0.7,1-0.4,1.5s1,0.7,1.5,0.4c0,0,0,0,0,0c5.7-3.6,7.4-11.2,3.7-16.9C20.1,2.4,18.8,1.1,17.3,0.2
	 M19.1,10.5c0-2.9-1.5-5.5-3.9-7.1c-0.5-0.4-1.2-0.2-1.5,0.3c-0.4,0.5-0.2,1.2,0.3,1.5c0,0,0.1,0,0.1,0.1c2.9,1.8,3.7,5.7,1.9,8.5
	c-0.5,0.8-1.1,1.4-1.9,1.9c-0.5,0.3-0.7,1-0.3,1.5c0.2,0.3,0.5,0.5,0.9,0.5c0.2,0,0.4-0.1,0.6-0.2C17.7,16,19.1,13.4,19.1,10.5
	 M8.9,5.3c0.5-0.4,0.6-1,0.2-1.5C8.8,3.3,8.2,3.2,7.7,3.4C3.8,5.9,2.7,11.1,5.2,15c0.7,1,1.5,1.9,2.6,2.6c0.2,0.1,0.4,0.2,0.6,0.2
	c0.6,0,1.1-0.5,1.1-1.1c0-0.4-0.2-0.7-0.5-0.9C6,13.9,5.2,10.1,7,7.2C7.5,6.4,8.2,5.8,8.9,5.3"/>
</svg>
