<svg xmlns="http://www.w3.org/2000/svg" width="32.071" height="26.063" viewBox="0 0 32.071 26.063">
  <path id="iconmonstr-twitter-1_1_" data-name="iconmonstr-twitter-1 (1)" d="M32.071,5.334a13.137,13.137,0,0,1-3.779,1.036,6.591,6.591,0,0,0,2.893-3.64,13.181,13.181,0,0,1-4.179,1.6,6.584,6.584,0,0,0-11.213,6A18.679,18.679,0,0,1,2.233,3.452a6.588,6.588,0,0,0,2.035,8.785,6.552,6.552,0,0,1-2.979-.823,6.585,6.585,0,0,0,5.277,6.535,6.6,6.6,0,0,1-2.972.112,6.585,6.585,0,0,0,6.147,4.569A13.23,13.23,0,0,1,0,25.355a18.627,18.627,0,0,0,10.086,2.956c12.216,0,19.118-10.318,18.7-19.571a13.4,13.4,0,0,0,3.283-3.406Z" transform="translate(0 -2.248)" fill="#fff"/>
</svg>
