<svg xmlns="http://www.w3.org/2000/svg" width="30.899" height="30.899" viewBox="0 0 30.899 30.899">
  <path id="whatsapp-brands_1_" data-name="whatsapp-brands (1)" d="M26.271,36.49a15.317,15.317,0,0,0-24.1,18.478L0,62.9l8.118-2.131a15.265,15.265,0,0,0,7.318,1.862h.007A15.215,15.215,0,0,0,26.271,36.49ZM15.443,60.051a12.7,12.7,0,0,1-6.483-1.773L8.5,58,3.683,59.265l1.283-4.7-.3-.483a12.751,12.751,0,1,1,23.65-6.766A12.869,12.869,0,0,1,15.443,60.051Zm6.98-9.532c-.379-.193-2.262-1.117-2.614-1.241s-.607-.193-.862.193-.986,1.241-1.214,1.5-.448.29-.828.1A10.414,10.414,0,0,1,11.7,46.519c-.393-.676.393-.628,1.124-2.09a.709.709,0,0,0-.034-.669c-.1-.193-.862-2.076-1.179-2.842-.31-.745-.628-.641-.862-.655s-.476-.014-.731-.014a1.417,1.417,0,0,0-1.021.476,4.3,4.3,0,0,0-1.338,3.193,7.5,7.5,0,0,0,1.559,3.959c.193.255,2.7,4.118,6.539,5.78,2.428,1.048,3.38,1.138,4.594.959a3.919,3.919,0,0,0,2.58-1.821,3.2,3.2,0,0,0,.221-1.821C23.057,50.8,22.8,50.705,22.423,50.519Z" transform="translate(0 -32)" fill="#fff"/>
</svg>
